<?xml version="1.0" encoding="UTF-8" standalone="no"?>
<!DOCTYPE svg PUBLIC "-//W3C//DTD SVG 1.1//EN" "http://www.w3.org/Graphics/SVG/1.1/DTD/svg11.dtd">
<svg width="100%" height="100%" viewBox="0 0 590 165" version="1.1" xmlns="http://www.w3.org/2000/svg" xmlns:xlink="http://www.w3.org/1999/xlink" xml:space="preserve" xmlns:serif="http://www.serif.com/" style="fill-rule:evenodd;clip-rule:evenodd;stroke-linejoin:round;stroke-miterlimit:2;">
    <rect id="oshw-certification-mark-wide" x="0" y="-0" width="589.565" height="164.511" style="fill:none;"/>
    <g id="oshw-certification-mark-wide1" serif:id="oshw-certification-mark-wide">
        <g id="logo">
            <g>
                <path d="M30.596,43.532l0,88.903l192.744,-0l0,-88.903l-7.669,-0l-0.168,81.066l-177.07,-0l0,-73.229l150.659,0l-0,-7.837l-158.496,-0Z" style="fill:rgb(51,51,51);fill-rule:nonzero;"/>
                <path d="M75.817,88.936c0,-6.715 -0.694,-11.511 -2.082,-14.39c-1.367,-2.877 -3.622,-4.316 -6.765,-4.316c-3.123,-0 -5.378,1.439 -6.766,4.316c-1.368,2.878 -2.051,7.674 -2.051,14.39c-0,6.694 0.683,11.48 2.051,14.357c1.388,2.878 3.643,4.317 6.766,4.317c3.143,0 5.398,-1.429 6.765,-4.286c1.388,-2.878 2.082,-7.674 2.082,-14.389m6.46,-0c-0,7.96 -1.266,13.899 -3.796,17.818c-2.511,3.919 -6.348,5.878 -11.511,5.878c-5.164,-0 -9.001,-1.949 -11.511,-5.847c-2.511,-3.899 -3.766,-9.848 -3.766,-17.849c0,-7.98 1.255,-13.929 3.766,-17.848c2.53,-3.918 6.367,-5.877 11.511,-5.877c5.163,-0 9,1.959 11.511,5.877c2.53,3.919 3.796,9.868 3.796,17.848" style="fill:rgb(51,51,51);fill-rule:nonzero;"/>
                <path d="M116.819,67.605l0,6.276c-1.878,-1.204 -3.766,-2.112 -5.664,-2.724c-1.877,-0.613 -3.775,-0.919 -5.694,-0.919c-2.918,0 -5.225,0.684 -6.919,2.051c-1.694,1.347 -2.541,3.174 -2.541,5.48c0,2.021 0.551,3.562 1.653,4.623c1.123,1.061 3.205,1.949 6.246,2.664l3.245,0.734c4.286,1 7.408,2.572 9.368,4.715c1.959,2.143 2.939,5.061 2.939,8.756c-0,4.347 -1.347,7.663 -4.041,9.949c-2.694,2.286 -6.613,3.429 -11.756,3.429c-2.143,-0 -4.296,-0.235 -6.46,-0.704c-2.163,-0.449 -4.337,-1.133 -6.521,-2.051l0,-6.582c2.347,1.489 4.562,2.581 6.644,3.275c2.102,0.694 4.214,1.041 6.337,1.041c3.122,0 5.551,-0.694 7.286,-2.082c1.735,-1.408 2.602,-3.367 2.602,-5.878c0,-2.285 -0.602,-4.03 -1.806,-5.235c-1.184,-1.204 -3.255,-2.132 -6.215,-2.785l-3.306,-0.766c-4.245,-0.959 -7.327,-2.408 -9.245,-4.347c-1.919,-1.939 -2.878,-4.541 -2.878,-7.807c-0,-4.082 1.367,-7.347 4.102,-9.796c2.755,-2.47 6.409,-3.705 10.96,-3.705c1.755,0 3.602,0.205 5.541,0.613c1.939,0.388 3.98,0.979 6.123,1.775" style="fill:rgb(51,51,51);fill-rule:nonzero;"/>
                <path d="M127.739,66.038l6.215,-0l-0,18.736l16.929,0l0,-18.736l6.215,-0l0,45.707l-6.215,-0l0,-21.767l-16.929,-0l-0,21.767l-6.215,-0l-0,-45.707" style="fill:rgb(51,51,51);fill-rule:nonzero;"/>
            </g>
            <path d="M161.269,66.038l6.031,-0l4.378,37.104l5.205,-24.553l6.459,0l5.266,24.614l14.828,-71.127l6.031,0l-17.277,79.669l-5.848,-0l-6.214,-27.155l-6.184,27.155l-5.848,-0l-6.827,-45.707" style="fill:rgb(255,68,68);fill-rule:nonzero;"/>
        </g>
        <text id="project-uid" x="231.724px" y="114.006px" style="font-family:'DejaVuSansMono', 'DejaVu Sans Mono', monospace;font-size:68.915px;fill:rgb(51,51,51);">US000001</text>
    </g>
</svg>
