<?xml version="1.0" encoding="UTF-8" standalone="no"?>
<!DOCTYPE svg PUBLIC "-//W3C//DTD SVG 1.1//EN" "http://www.w3.org/Graphics/SVG/1.1/DTD/svg11.dtd">
<svg width="100%" height="100%" viewBox="0 0 549 357" version="1.1" xmlns="http://www.w3.org/2000/svg" xmlns:xlink="http://www.w3.org/1999/xlink" xml:space="preserve" xmlns:serif="http://www.serif.com/" style="fill-rule:evenodd;clip-rule:evenodd;stroke-linejoin:round;stroke-miterlimit:2;">
    <rect id="oshw-certification-mark-logo" x="0" y="0.491" width="548.94" height="355.672" style="fill:none;"/>
    <g id="oshw-certification-mark-logo1" serif:id="oshw-certification-mark-logo">
        <g id="logo">
            <g>
                <path d="M46.942,86.903l-0,209.894l455.056,0l0,-209.894l-18.106,-0l-0.397,191.391l-418.05,0l-0,-172.888l355.694,-0l0,-18.503l-374.197,-0Z" style="fill:rgb(51,51,51);fill-rule:nonzero;"/>
                <path d="M153.705,194.098c0,-15.853 -1.638,-27.177 -4.915,-33.972c-3.228,-6.794 -8.553,-10.191 -15.973,-10.191c-7.372,-0 -12.697,3.397 -15.974,10.191c-3.228,6.794 -4.842,18.118 -4.842,33.972c-0,15.805 1.614,27.105 4.842,33.898c3.277,6.794 8.601,10.191 15.974,10.191c7.42,0 12.745,-3.373 15.973,-10.119c3.277,-6.794 4.915,-18.117 4.915,-33.972m15.251,0c0,18.793 -2.987,32.816 -8.962,42.068c-5.927,9.251 -14.986,13.877 -27.177,13.877c-12.191,0 -21.25,-4.602 -27.177,-13.805c-5.926,-9.204 -8.89,-23.25 -8.89,-42.138c0,-18.841 2.964,-32.887 8.89,-42.138c5.975,-9.252 15.034,-13.878 27.177,-13.878c12.191,0 21.25,4.626 27.177,13.878c5.975,9.251 8.962,23.297 8.962,42.138" style="fill:rgb(51,51,51);fill-rule:nonzero;"/>
                <path d="M250.508,143.738l0,14.817c-4.433,-2.842 -8.89,-4.987 -13.371,-6.432c-4.433,-1.446 -8.914,-2.168 -13.444,-2.169c-6.891,0.001 -12.335,1.615 -16.335,4.843c-3.999,3.18 -5.999,7.493 -5.999,12.938c0,4.77 1.301,8.408 3.903,10.914c2.65,2.506 7.565,4.602 14.745,6.288l7.661,1.735c10.119,2.361 17.491,6.072 22.117,11.131c4.626,5.059 6.939,11.95 6.939,20.671c0,10.264 -3.18,18.094 -9.541,23.491c-6.36,5.397 -15.612,8.095 -27.755,8.095c-5.059,0 -10.143,-0.554 -15.25,-1.662c-5.108,-1.06 -10.24,-2.675 -15.396,-4.843l0,-15.54c5.542,3.518 10.77,6.096 15.685,7.734c4.963,1.638 9.95,2.457 14.961,2.457c7.373,0 13.107,-1.638 17.203,-4.915c4.095,-3.324 6.143,-7.95 6.143,-13.877c0,-5.397 -1.421,-9.517 -4.264,-12.36c-2.795,-2.843 -7.686,-5.035 -14.673,-6.577l-7.805,-1.807c-10.023,-2.265 -17.299,-5.686 -21.828,-10.263c-4.53,-4.578 -6.795,-10.722 -6.795,-18.431c0,-9.638 3.229,-17.347 9.686,-23.13c6.505,-5.83 15.13,-8.745 25.875,-8.745c4.144,-0 8.505,0.482 13.083,1.445c4.577,0.916 9.396,2.313 14.455,4.193" style="fill:rgb(51,51,51);fill-rule:nonzero;"/>
                <path d="M276.29,140.038l14.672,-0l-0,44.235l39.97,-0l0,-44.235l14.673,-0l-0,107.911l-14.673,-0l0,-51.39l-39.97,-0l-0,51.39l-14.672,-0l-0,-107.911" style="fill:rgb(51,51,51);fill-rule:nonzero;"/>
            </g>
            <path d="M355.453,140.038l14.238,-0l10.336,87.6l12.288,-57.967l15.25,-0l12.432,58.112l35.008,-167.926l14.239,-0l-40.79,188.092l-13.805,-0l-14.673,-64.111l-14.6,64.111l-13.806,-0l-16.118,-107.911" style="fill:rgb(255,68,68);fill-rule:nonzero;"/>
        </g>
    </g>
</svg>
