<?xml version="1.0" encoding="UTF-8" standalone="no"?>
<!-- Created with Inkscape (http://www.inkscape.org/) -->

<svg
   xmlns:dc="http://purl.org/dc/elements/1.1/"
   xmlns:cc="http://creativecommons.org/ns#"
   xmlns:rdf="http://www.w3.org/1999/02/22-rdf-syntax-ns#"
   xmlns:svg="http://www.w3.org/2000/svg"
   xmlns="http://www.w3.org/2000/svg"
   xmlns:sodipodi="http://sodipodi.sourceforge.net/DTD/sodipodi-0.dtd"
   xmlns:inkscape="http://www.inkscape.org/namespaces/inkscape"
   width="744.09448819"
   height="1052.3622047"
   id="svg4882"
   version="1.1"
   inkscape:version="0.48.3.1 r9886"
   sodipodi:docname="New document 32">
  <defs
     id="defs4884" />
  <sodipodi:namedview
     id="base"
     pagecolor="#ffffff"
     bordercolor="#666666"
     borderopacity="1.0"
     inkscape:pageopacity="0.0"
     inkscape:pageshadow="2"
     inkscape:zoom="1.4"
     inkscape:cx="306.73178"
     inkscape:cy="822.38254"
     inkscape:document-units="px"
     inkscape:current-layer="layer1"
     showgrid="false"
     inkscape:window-width="1855"
     inkscape:window-height="1056"
     inkscape:window-x="65"
     inkscape:window-y="24"
     inkscape:window-maximized="1" />
  <metadata
     id="metadata4887">
    <rdf:RDF>
      <cc:Work
         rdf:about="">
        <dc:format>image/svg+xml</dc:format>
        <dc:type
           rdf:resource="http://purl.org/dc/dcmitype/StillImage" />
        <dc:title></dc:title>
      </cc:Work>
    </rdf:RDF>
  </metadata>
  <g
     inkscape:label="Layer 1"
     inkscape:groupmode="layer"
     id="layer1">
    <rect
       style="color:#000000;fill:#cccccc;fill-opacity:1;fill-rule:nonzero;stroke:none;stroke-width:6;marker:none;visibility:visible;display:inline;overflow:visible;enable-background:accumulate"
       id="rect4890"
       width="494.28571"
       height="242.85715"
       x="74.285713"
       y="49.505039" />
    <rect
       style="color:#000000;fill:#f2f2f2;fill-opacity:1;fill-rule:nonzero;stroke:none;stroke-width:6;marker:none;visibility:visible;display:inline;overflow:visible;enable-background:accumulate"
       id="rect4890-8"
       width="494.28571"
       height="242.85715"
       x="69.285721"
       y="44.505035" />
    <text
       xml:space="preserve"
       style="font-size:40px;font-style:normal;font-variant:normal;font-weight:300;font-stretch:normal;line-height:125%;letter-spacing:0px;word-spacing:0px;fill:#000000;fill-opacity:1;stroke:none;font-family:Junction;-inkscape-font-specification:Junction Light"
       x="107.71429"
       y="97.790756"
       id="text4910"
       sodipodi:linespacing="125%"><tspan
         sodipodi:role="line"
         id="tspan4912"
         x="107.71429"
         y="97.790756"
         style="font-size:20px">32. Finally, plug the cable in and attach the </tspan><tspan
         sodipodi:role="line"
         x="107.71429"
         y="122.79076"
         style="font-size:20px"
         id="tspan4914">      blunt end to the tree using the provided </tspan><tspan
         sodipodi:role="line"
         x="107.71429"
         y="147.79076"
         style="font-size:20px"
         id="tspan4916">      rubber bands.</tspan><tspan
         sodipodi:role="line"
         x="107.71429"
         y="172.79076"
         style="font-size:20px"
         id="tspan4918">33. You're done! </tspan><tspan
         sodipodi:role="line"
         x="107.71429"
         y="198.72826"
         style="font-size:21px"
         id="tspan4920"> </tspan><tspan
         sodipodi:role="line"
         x="107.71429"
         y="224.97826"
         style="font-size:21px"
         id="tspan4936" /><tspan
         sodipodi:role="line"
         x="107.71429"
         y="246.54076"
         style="font-size:16px"
         id="tspan4932">                          This kit is certified open hardware.</tspan></text>
    <g
       id="g4006"
       transform="matrix(0.35179848,0,0,0.35179848,4.917596,53.079432)">
      <g
         style="fill:#333333"
         transform="translate(-247.27278,286.33462)"
         id="g3960-2-6">
        <g
           id="g3885-4-0"
           transform="translate(-72.785915,-85.36141)"
           style="fill:#333333;stroke:none">
          <path
             sodipodi:nodetypes="ccccccccccccccccc"
             style="font-size:medium;font-style:normal;font-variant:normal;font-weight:normal;font-stretch:normal;text-indent:0;text-align:start;text-decoration:none;line-height:normal;letter-spacing:normal;word-spacing:normal;text-transform:none;direction:ltr;block-progression:tb;writing-mode:lr-tb;text-anchor:start;baseline-shift:baseline;color:#000000;fill:#333333;fill-opacity:1;fill-rule:nonzero;stroke:none;stroke-width:6;marker:none;visibility:visible;display:inline;overflow:visible;enable-background:accumulate;font-family:Sans;-inkscape-font-specification:Sans"
             d="m 713.09375,278.5 0,3 0,62.0625 0,3 3,0 141.5625,0 3,0 0,-3 0,-65.0625 -5.87121,0 -0.12879,62.0625 -135.5625,0 0,-56.0625 115.34375,0 0,-6 -118.34375,0 z"
             id="path3123-3-2-9-2"
             inkscape:connector-curvature="0" />
          <path
             d="m 747.71492,313.26414 c -2e-5,-5.1406 -0.53127,-8.81247 -1.59375,-11.01562 -1.0469,-2.2031 -2.77346,-3.30466 -5.17969,-3.30469 -2.39064,3e-5 -4.1172,1.10159 -5.17969,3.30469 -1.04688,2.20315 -1.57032,5.87502 -1.57031,11.01562 -10e-6,5.12501 0.52343,8.78907 1.57031,10.99219 1.06249,2.20313 2.78905,3.30469 5.17969,3.30469 2.40623,0 4.13279,-1.09375 5.17969,-3.28125 1.06248,-2.20312 1.59373,-5.87499 1.59375,-11.01563 m 4.94531,0 c -3e-5,6.09376 -0.96878,10.64063 -2.90625,13.64063 -1.9219,3 -4.85939,4.5 -8.8125,4.5 -3.95314,0 -6.89063,-1.49219 -8.8125,-4.47657 -1.92188,-2.98436 -2.88281,-7.53905 -2.88281,-13.66406 0,-6.10935 0.96093,-10.66403 2.88281,-13.66406 1.93749,-2.99997 4.87499,-4.49996 8.8125,-4.5 3.95311,4e-5 6.8906,1.50003 8.8125,4.5 1.93747,3.00003 2.90622,7.55471 2.90625,13.66406"
             style="font-size:48px;font-style:normal;font-variant:normal;font-weight:normal;font-stretch:normal;line-height:125%;letter-spacing:0px;word-spacing:0px;fill:#333333;fill-opacity:1;stroke:none;font-family:DejaVu Sans Mono;-inkscape-font-specification:DejaVu Sans Mono"
             id="path3851-6-1"
             inkscape:connector-curvature="0" />
          <path
             d="m 779.09773,296.9282 0,4.80469 c -1.43752,-0.92184 -2.88283,-1.61715 -4.33594,-2.08594 -1.43752,-0.46871 -2.89064,-0.70309 -4.35937,-0.70312 -2.23439,3e-5 -4.00001,0.52347 -5.29688,1.57031 -1.29688,1.03128 -1.94532,2.42972 -1.94531,4.19531 -10e-6,1.5469 0.42187,2.72659 1.26563,3.53907 0.85936,0.81252 2.45311,1.49221 4.78125,2.03906 l 2.48437,0.5625 c 3.28123,0.76564 5.67185,1.96877 7.17188,3.60937 1.49997,1.64064 2.24997,3.87502 2.25,6.70313 -3e-5,3.32813 -1.03128,5.86719 -3.09375,7.61719 -2.06253,1.75 -5.06252,2.625 -9,2.625 -1.64064,0 -3.28908,-0.17969 -4.94532,-0.53907 -1.65625,-0.34375 -3.32032,-0.86718 -4.99218,-1.57031 l 0,-5.03906 c 1.79686,1.14063 3.49218,1.97657 5.08593,2.50781 1.60937,0.53126 3.22655,0.79688 4.85157,0.79688 2.3906,0 4.24998,-0.53125 5.57812,-1.59375 1.3281,-1.07812 1.99217,-2.57812 1.99219,-4.5 -2e-5,-1.74999 -0.46096,-3.08593 -1.38281,-4.00782 -0.90627,-0.92186 -2.49221,-1.63279 -4.75782,-2.13281 l -2.53125,-0.58594 c -3.25001,-0.73435 -5.60938,-1.84373 -7.07812,-3.32812 -1.46876,-1.48435 -2.20313,-3.47654 -2.20313,-5.97656 0,-3.12497 1.04687,-5.62497 3.14063,-7.5 2.10936,-1.89059 4.90624,-2.8359 8.39062,-2.83594 1.34374,4e-5 2.7578,0.15629 4.24219,0.46875 1.48435,0.29691 3.04685,0.75003 4.6875,1.35937"
             style="font-size:48px;font-style:normal;font-variant:normal;font-weight:normal;font-stretch:normal;line-height:125%;letter-spacing:0px;word-spacing:0px;fill:#333333;fill-opacity:1;stroke:none;font-family:DejaVu Sans Mono;-inkscape-font-specification:DejaVu Sans Mono"
             id="path3853-9-6"
             inkscape:connector-curvature="0" />
          <path
             d="m 787.46492,295.73289 4.75781,0 0,14.34375 12.96094,0 0,-14.34375 4.75781,0 0,34.99219 -4.75781,0 0,-16.66406 -12.96094,0 0,16.66406 -4.75781,0 0,-34.99219"
             style="font-size:48px;font-style:normal;font-variant:normal;font-weight:normal;font-stretch:normal;line-height:125%;letter-spacing:0px;word-spacing:0px;fill:#333333;fill-opacity:1;stroke:none;font-family:DejaVu Sans Mono;-inkscape-font-specification:DejaVu Sans Mono"
             id="path3855-7-3"
             inkscape:connector-curvature="0" />
          <path
             d="m 813.12898,295.73289 4.61719,0 3.35156,28.40625 3.98437,-18.79687 4.94532,0 4.03125,18.84375 11.35156,-54.45313 4.61719,0 -13.22657,60.99219 -4.47656,0 -4.75781,-20.78906 -4.73438,20.78906 -4.47656,0 -5.22656,-34.99219"
             style="font-size:48px;font-style:normal;font-variant:normal;font-weight:normal;font-stretch:normal;line-height:125%;letter-spacing:0px;word-spacing:0px;fill:#333333;fill-opacity:1;stroke:none;font-family:DejaVu Sans Mono;-inkscape-font-specification:DejaVu Sans Mono"
             id="path3857-9-4"
             inkscape:connector-curvature="0"
             sodipodi:nodetypes="cccccccccccccc" />
        </g>
        <flowRoot
           xml:space="preserve"
           id="flowRoot3901-8-4-3"
           style="font-size:40px;font-style:normal;font-variant:normal;font-weight:300;font-stretch:normal;line-height:125%;letter-spacing:0px;word-spacing:0px;fill:#333333;fill-opacity:1;stroke:none;font-family:Junction;-inkscape-font-specification:Junction Light"
           transform="matrix(0.88898139,0,0,0.88898139,83.223097,-193.09971)"><flowRegion
             id="flowRegion3903-9-8-7"><rect
               id="rect3905-5-3-0"
               width="189.06131"
               height="55.788586"
               x="638.46936"
               y="515.16278"
               style="fill:#333333;stroke:none" /></flowRegion><flowPara
             id="flowPara3907-4-7-7"
             style="font-style:normal;font-variant:normal;font-weight:normal;font-stretch:normal;fill:#333333;stroke:none;font-family:Andale Mono;-inkscape-font-specification:Andale Mono">w35bir</flowPara></flowRoot>      </g>
    </g>
    <path
       style="fill:#ffffff;stroke:none;stroke-width:1px;stroke-linecap:butt;stroke-linejoin:miter;stroke-opacity:1;fill-opacity:1"
       d="m 52.142857,30.93361 c 0,0 18.571429,30 18.571429,27.142857 0,-2.857143 20.714286,-14.285714 20.714286,-14.285714 l 16.428568,10 24.28572,-12.142857 10.71428,7.142857 34.28572,-12.857143 21.42857,29.285714 30.71428,-22.857142 c 0,0 12.85715,15 15.71429,13.571428 2.85714,-1.428571 25,-15 25,-15 l 16.42857,9.285714 10,-6.428571 5,0 15.71429,0.714286 c 0,0 6.42857,21.428571 10,17.142857 3.57143,-4.285714 13.57143,-14.285714 13.57143,-14.285714 L 355,58.790753 l 10.71429,-13.571429 20,17.142858 L 400,49.505039 l 12.14286,10 17.14285,-11.428572 42.85715,12.857143 13.57143,-17.142857 12.14285,12.142857 22.85715,-7.857143 12.14285,12.857143 6.42857,-17.857143 20,17.857143 30,-9.285714 10,-27.142857"
       id="path4996"
       inkscape:connector-curvature="0"
       sodipodi:nodetypes="cscccccccscccccscccccccccccccccc" />
  </g>
</svg>
